<svg width="500" height="500" viewBox="0 0 500 500" fill="none" xmlns="http://www.w3.org/2000/svg">
<path d="M250 450C360.457 450 450 360.457 450 250C450 139.543 360.457 50 250 50C139.543 50 50 139.543 50 250C50 360.457 139.543 450 250 450Z" fill="#FFEB99"/>
<path d="M180 225C193.807 225 205 213.807 205 200C205 186.193 193.807 175 180 175C166.193 175 155 186.193 155 200C155 213.807 166.193 225 180 225Z" fill="white" stroke="black" stroke-width="3"/>
<path d="M320 225C333.807 225 345 213.807 345 200C345 186.193 333.807 175 320 175C306.193 175 295 186.193 295 200C295 213.807 306.193 225 320 225Z" fill="white" stroke="black" stroke-width="3"/>
<path d="M180 210C185.523 210 190 205.523 190 200C190 194.477 185.523 190 180 190C174.477 190 170 194.477 170 200C170 205.523 174.477 210 180 210Z" fill="black"/>
<path d="M320 210C325.523 210 330 205.523 330 200C330 194.477 325.523 190 320 190C314.477 190 310 194.477 310 200C310 205.523 314.477 210 320 210Z" fill="black"/>
<path d="M150 145L230 160" stroke="black" stroke-width="5"/>
<path d="M350 145L270 160" stroke="black" stroke-width="5"/>
<path d="M250 220L240 260H260L250 220Z" fill="#FFCC66" stroke="#CC9933" stroke-width="2"/>
<path d="M180 320H320" stroke="black" stroke-width="6" stroke-linecap="round"/>
</svg>
